<?xml version="1.0" encoding="utf-8"?>
<!DOCTYPE svg PUBLIC "-//W3C//DTD SVG 1.0//EN" "http://www.w3.org/TR/2001/REC-SVG-20010904/DTD/svg10.dtd">
<svg version="1.0" xmlns="http://www.w3.org/2000/svg" width="2048px" height="590px" viewBox="0 0 2048 590" preserveAspectRatio="xMidYMid meet">
 <g fill="#fefffe">
  <path d="M0 295.1 l0 -295.1 1024 0 1024 0 0 295.1 0 295.1 -1024 0 -1024 0 0 -295.1z m340.2 231.6 c6.5 -1 14.3 -2.3 17.2 -3.1 3 -0.8 8.4 -2.1 11.9 -2.8 3.6 -0.8 6.9 -1.8 7.5 -2.4 0.7 -0.4 2.5 -0.9 4.1 -0.9 1.7 0 5.9 -1.4 9.3 -3.1 3.4 -1.6 7.4 -3.5 8.9 -3.8 3.1 -0.9 5.6 -2.1 18.4 -8.2 5.1 -2.4 11.2 -5.5 13.6 -7.1 2.4 -1.4 5.1 -2.9 6 -3.4 0.9 -0.4 6.5 -4.3 12.4 -8.5 48.7 -34.8 82.2 -86.2 94.5 -144.9 3.5 -16.9 4.8 -45 2.8 -61.4 -8.8 -70.7 -45.1 -130 -103.7 -168.8 -14.3 -9.5 -35.7 -20.4 -51.6 -26.3 -28.5 -10.5 -67.7 -16.7 -91 -14.5 -5.1 0.4 -14.9 1.3 -21.7 1.8 -43 3.3 -92.6 24.7 -130.3 56.3 -45.3 38.1 -74.6 93 -81.1 152.3 -5.2 47.4 8.4 100.3 36.9 143.1 17.5 26.3 43.5 51.5 69.9 67.9 34.9 21.6 72.6 34.6 112.3 38.6 11.1 1.2 43 0.7 53.8 -0.9z m1217.5 -124 c3.4 -1.2 8.5 -3.6 11.5 -5.5 7.8 -4.8 13.3 -4.7 19 0.4 4.9 4.3 9.1 4.9 13 1.7 l2.6 -2.1 0.5 -37.1 0.5 -37.1 2.6 -2.1 c1.4 -1.2 3.8 -2.4 5.4 -2.7 5.2 -1.3 6.6 -3.5 6.6 -10.2 0 -6.9 -2.2 -10.7 -11.3 -19.5 l-5.1 -4.9 -32 0 -32.1 0 -2.1 2.6 c-1.6 2 -2.1 4.2 -2.1 10 l0 7.4 7.2 8.2 c3.9 4.4 7.6 8.1 8.2 8.1 0.7 0 1 5.9 0.7 16.9 l-0.3 16.9 -3.5 3 c-2.7 2.4 -4.9 3.3 -10.3 3.8 -10.2 1.1 -14.8 -0.8 -18.3 -7.5 -4.3 -8 -5.9 -16.7 -5.9 -33.8 0 -15 0 -15.3 3 -19.7 l3.1 -4.4 -2.8 -4.1 c-2.7 -3.9 -2.8 -4.8 -2.8 -18.2 0 -20.4 3.7 -34.7 11.3 -43.6 6.6 -7.8 21.5 -11.4 29.9 -7.1 5.1 2.5 7.2 6.6 9.4 18.4 1.8 9.9 2 10.1 8.8 17.6 l6.9 7.6 8.2 0 c12.9 0 12.1 2.3 12.1 -36.1 l0 -32.5 -6.2 -6.6 c-9.4 -10 -11.8 -11.5 -15.5 -10.2 -1.7 0.5 -3.9 2.2 -4.9 3.7 -2.2 3.5 -6.8 3.5 -12.8 0 -7.8 -4.6 -19.9 -7.6 -29.5 -7.6 -22 0.1 -45.6 14.2 -59.4 35.7 -6 9.3 -12.9 25.5 -15.4 36.1 -1.8 7.8 -1.8 7.8 -5.5 7.8 -2.9 0 -3.9 -0.7 -5.3 -3.1 -3 -6 -13.9 -16.6 -19.5 -19.2 -8.4 -4 -15.5 -3.3 -24.6 2.5 -5.9 3.6 -11 3.4 -13.9 -0.8 -4 -5.5 -5.5 -5.9 -14.4 -2.3 -4.4 1.7 -11.2 3.8 -15 4.4 -14.1 2.5 -14.4 2.6 -15.8 5.4 -0.8 1.5 -1.4 5 -1.4 7.8 0 4.4 0.7 5.7 5.4 11.5 l5.4 6.5 0 16.9 c0 13.8 -0.3 17.5 -1.7 19.6 -1.6 2.5 -1.6 2.9 0 5.4 1.5 2.3 1.7 6.5 1.7 28 0 18.2 -0.3 25.6 -1.3 26.6 -0.8 0.8 -3.6 1.3 -6.4 1.3 -4.7 0 -5.1 -0.2 -5.6 -2.9 -1.3 -6 -18.3 -24 -21.6 -22.8 -0.4 0.1 -2.9 3.4 -5.4 7.2 -6 9 -10.8 12.8 -18.3 14.4 -8 1.6 -13.6 0.5 -15.5 -3.3 -2.2 -4.1 -3.9 -14.4 -3.9 -22.7 l0 -6.8 30.7 0 c26 0 31 -0.2 33.1 -1.7 2.3 -1.5 2.4 -2.4 2.4 -14.3 -0.1 -6.9 -0.8 -16.4 -1.5 -20.8 -6.6 -37 -38.3 -67 -65.1 -61.8 -24 4.7 -42.5 27.4 -48.9 59.9 -2.7 14 -3.4 15.2 -8 14.8 l-3.9 -0.3 -0.5 -30.9 -0.5 -31 -3.5 -4.4 c-4.2 -5.2 -4.7 -9.9 -1.3 -12.9 4.1 -3.7 7.6 -11 8.2 -17.1 0.5 -5.3 0.2 -6.9 -2.8 -13 -6.1 -12.4 -19 -23.3 -27.6 -23.4 -10 -0.1 -21.3 10.8 -23 22.5 -1.2 7.4 3.8 17.4 14 27.9 4 4 5 5.9 5 8.8 0 2.1 -0.1 3.8 -0.2 3.8 -3 0 -22 4.4 -22.9 5.3 -0.7 0.7 -3.1 1.2 -5.6 1.2 -3.8 0 -5.1 -0.7 -8.7 -4.3 -3.9 -4 -4.7 -4.3 -10.4 -4.3 l-6.1 0 -0.8 -5.1 c-0.3 -2.8 -0.3 -8.1 0 -11.8 1 -8.9 -0.5 -12.9 -7.5 -19.7 -10.5 -10.4 -15.7 -8.6 -20.8 7.4 -6.1 18.9 -16.2 30.2 -29.5 33.1 -2 0.3 -4.6 2.1 -5.9 3.6 -2 2.5 -2.2 3.8 -1.6 8.7 0.7 5 1.5 6.7 6.3 12.1 3 3.5 6.6 6.8 8 7.5 2.6 1.1 2.6 1.4 2.6 16.5 0 13.6 -0.2 15.7 -2.3 19 -2.1 3.5 -2.1 3.7 -0.3 6.5 1.6 2.4 2.1 6.6 2.6 24.7 0.9 24.6 2.2 30.4 9.2 41.3 6.2 9.7 16.1 19.4 22.6 22.3 4.3 1.8 7.6 2.5 13.8 2.4 9.5 0 15.9 -2.5 21.7 -8.5 3.1 -3.3 4.4 -3.8 8.7 -3.8 4.4 0 5.4 0.5 9.8 4.9 l4.8 4.9 25.2 0 c13.9 0 26.5 -0.4 28 -1.1 2.7 -1 2.8 -1.4 2.8 -9 l0 -7.9 -6 -7.3 -6 -7.2 0 -20.5 c0 -11.3 0.3 -22.1 0.7 -24 0.7 -3.3 1 -3.5 5.1 -3.1 l4.4 0.3 1.4 8.6 c4 23.6 14.3 43.1 32.1 60.1 21.8 20.7 50.5 20 70.4 -2.1 6.2 -6.7 7.3 -7.5 11 -7.5 3.6 0 4 0.3 4 2.6 0 2.7 10.6 16.2 13.7 17.4 1 0.3 13.2 0.7 27.4 0.7 31 0 30.5 0.2 30.5 -10.4 0 -7.2 0 -7.2 -6.6 -15.1 l-6.5 -7.9 0.4 -23.8 c0.3 -13 0.8 -29.9 1 -37.7 l0.3 -14.1 5.1 -0.3 c4.8 -0.3 5.2 -0.1 10.3 5.3 2.8 3.1 7.2 6.5 9.5 7.6 4.7 2.2 11.9 2.7 13 1 0.3 -0.5 3.3 -1.1 6.5 -1.1 l5.9 0 0.7 5.2 c2.6 18.9 10.2 40.5 18.8 53 20.7 30.5 45 45.7 71.3 44.4 5.6 -0.3 12.3 -1.4 15.7 -2.6z m-658.3 -1.7 c10.5 -3.3 18.2 -9.2 26.7 -20.9 4.6 -6.4 5.1 -6.8 9.1 -6.8 l4.2 0 0 6 c0 5.7 0.2 6.1 6.4 12.7 l6.4 6.8 25.7 0.3 c30.2 0.4 30.9 0.2 30.9 -7.9 l0 -4.9 4.7 0 c4.1 0.1 4.9 0.5 8.4 5 5.9 7.6 7.3 8 26.3 8 21.5 0 21.9 -0.2 22.3 -10.3 l0.3 -7.6 -6.2 -7.5 -6.1 -7.4 0.4 -22.3 c0.2 -15.1 0.9 -23.2 1.7 -24.8 0.9 -1.6 1 -3.1 0.3 -5.1 -0.7 -1.4 -1.5 -10.8 -2.2 -20.9 -1.2 -20.3 -3.3 -28.7 -8.9 -37.7 -8.6 -13.7 -18.4 -22.1 -28.5 -24.4 -6.2 -1.4 -14.3 0.5 -21.4 5 -2.5 1.5 -5.9 2.6 -8.2 2.6 -3.4 0 -4.8 -0.8 -8 -4.3 -4.3 -4.8 -2.5 -4.8 -18.5 0.4 -4.6 1.5 -11.3 3.3 -14.9 3.8 -9 1.4 -10.6 2.6 -11.5 7.7 -1.1 6.5 0.3 10.8 5.7 17.2 l5 5.7 0.4 11.7 c0.3 6.5 0.1 13.6 -0.2 15.6 -0.7 3.6 -1.1 3.9 -4.4 3.9 -3.4 0 -3.7 -0.2 -4.3 -4.6 -2.3 -13.3 -9.3 -27.9 -19.7 -40.9 -11 -13.8 -22.9 -21.6 -36.9 -24.2 -16.6 -3 -36.9 7.8 -48.6 26 -3.8 5.9 -4.8 6.7 -7.7 6.7 -3.1 0 -3.7 -0.7 -7.3 -7.9 -4.8 -9.5 -12.6 -18 -20.3 -21.9 -7.7 -3.9 -15 -3.5 -22.8 1.4 -7.6 4.8 -12 4.7 -16.4 -0.3 -1.8 -2.1 -4.3 -3.8 -5.6 -3.8 -1.2 0 -6.7 1.5 -12.4 3.3 -6.2 2 -12.5 3.3 -16.1 3.3 l-6 0 0 -22 0 -22 -6.1 -7.1 c-8.1 -9.4 -10.2 -10.4 -15.7 -7.6 -4.1 2.2 -5.9 2.3 -55.8 2.3 l-51.4 0 -2.3 2.4 c-1.7 2 -2.2 3.8 -2.2 10.7 l0 8.4 7.6 8.1 7.6 8.1 0 27.6 0 27.6 -3.4 4.6 -3.4 4.6 3.4 5.1 3.4 5 0 33 0 33 -2.7 2.6 c-1.4 1.5 -3.8 2.7 -5.1 2.7 -1.4 0 -3.7 0.8 -5 1.7 -2.1 1.4 -2.4 2.6 -2.4 10 l0 8.4 7.1 7.4 7.1 7.3 33.3 0 c39.5 0 37.2 0.8 37.2 -11.8 l0 -8.1 -8.1 -8 -8.1 -7.9 0 -28.1 c0 -31.3 -0.5 -29.3 8.2 -29.3 4.8 0 4.8 0 5.4 4.4 0.8 4.6 9.3 16.3 13 17.7 3.7 1.4 8.1 0.7 10.7 -2.1 l2.7 -2.6 0 -28.7 0 -28.6 -5 -6.1 c-10.1 -12.5 -19.4 -12.4 -21.5 0.3 -0.9 5.6 -3.1 7.7 -8.2 7.7 -3.9 0 -4.3 -0.2 -4.9 -3.5 -0.3 -2 -0.5 -12.1 -0.3 -22.6 l0.3 -19 15.4 -0.3 c15.1 -0.2 15.5 -0.2 17 2.3 1 1.3 2.2 5.7 2.7 9.7 1.2 8.8 1.3 8.9 9.1 17 5.9 6.2 6.5 6.6 11.2 6.6 4.6 0 5.4 0.4 9.7 5.2 l4.8 5.1 0.1 17.2 c0 14.6 -0.3 17.6 -1.8 19.3 -1.6 1.8 -1.6 2.3 0 5.9 1.5 3.1 1.8 7.5 1.8 27.9 0 13.2 -0.4 24.6 -0.9 25.3 -0.4 0.5 -2.4 1.7 -4.3 2.6 -4.1 1.6 -5.6 4.7 -5.5 11.2 0.1 6.2 0.5 7.2 7.7 14.8 l6.2 6.7 27.1 -0.3 c20.5 -0.2 27.4 -0.7 28.5 -1.7 0.9 -0.9 1.4 -4.2 1.4 -8.8 l0 -7.4 -6.3 -7.2 -6.3 -7.2 0.5 -24.2 c0.2 -13.3 0.5 -24.9 0.5 -25.8 0.1 -0.9 -0.1 -4.7 -0.5 -8.4 -0.3 -3.7 -0.3 -9 0 -11.7 l0.8 -4.9 5.6 0 c5.3 0 6 0.3 10.5 5.1 6 6.2 10 7.9 18.4 7.9 5.1 0 6.5 0.3 6.5 1.6 0 1 0.7 2.8 1.5 4.1 0.9 1.3 2.4 8 3.4 14.9 3.3 21.5 8.1 33.6 19.7 49.4 14.6 19.6 31.5 29.6 47.6 28.1 3 -0.3 7.7 -1.2 10.3 -2z m840.8 -1.4 c2.1 -2.4 3.3 -10.5 2.2 -15.1 -0.4 -2.1 -3.8 -6.6 -8.4 -11.4 l-7.6 -8 0 -29.4 0 -29.3 3 -4.6 c1.6 -2.5 3.5 -4.6 4 -4.6 2 0 1.1 -2.3 -2.7 -7.3 l-3.8 -5 0 -29.6 0 -29.7 9.1 0 9.1 0 0.7 3.4 c0.3 1.8 0.7 6.1 0.7 9.2 0 5.6 0.2 6.2 6.8 13.8 l6.8 7.8 8.2 0.3 c7.8 0.3 8.4 0.1 10.5 -2.6 2.2 -2.8 2.3 -4 2.3 -32.3 0 -33.4 0.8 -30.4 -10.2 -41.5 -7.3 -7.6 -9.8 -8.4 -15.3 -4.7 -3.1 2.1 -5.2 2.2 -63.5 2.2 -58.3 0 -60.3 -0.1 -63.5 -2.2 -4.6 -3 -8.6 -2.8 -11.3 0.7 -2.2 2.8 -2.3 4.2 -2.3 33.6 l0 30.7 7.1 8 c6.3 7.3 7.5 8.1 11.7 8.6 6.8 0.8 12.6 -0.2 13.7 -2.3 0.5 -1 1.6 -6 2.3 -11 2 -14 6.7 -21.7 13.6 -21.7 l3.8 0 0 24.7 0 24.8 -2.8 2.6 c-5.1 4.8 -5.2 6 -1 11.5 l3.8 5 0 32.3 c0 17.8 -0.4 33.5 -1 34.9 -0.9 2.1 -2.5 3.1 -7.1 4.4 -7.2 2.2 -8.2 3.7 -8.2 12.6 l0 6.7 7.8 8 7.7 8 36 0 c33 0 36.1 -0.1 37.6 -1.8z m117.5 0.3 c2.2 -1.5 3.6 -11.3 2.3 -16.4 -0.4 -1.5 -3.9 -6.1 -7.7 -10.2 l-7.1 -7.5 0.2 -18.2 0.3 -18.3 4.9 0 4.8 0 7.4 21.2 c11.7 33.8 11.9 34.4 20.2 43.2 l7.3 7.8 6.6 0 c8.4 0 9.4 -1.1 13.1 -14 l2.8 -10 4.4 0.3 c4.2 0.3 4.4 0.5 5.1 4.4 0.5 3.3 2.3 5.9 8.1 11.7 l7.4 7.5 33.4 0 33.4 0 1.6 -2.6 c1 -1.4 2 -5 2.4 -7.9 0.8 -6.7 -0.7 -9.4 -9.3 -18.5 l-6.6 -6.8 0 -30.4 0 -30.3 3.8 -4.2 c2.1 -2.3 3.8 -4.4 3.8 -4.9 0 -0.3 -1.7 -3.3 -3.8 -6.5 l-3.9 -5.7 0.3 -30.5 c0.3 -34.2 0.3 -33.8 8.6 -36 5.3 -1.5 7.5 -4.7 7.5 -11.1 0 -7.3 -1.3 -10 -8.9 -17.8 l-6.6 -6.9 -29 0 c-28.5 0 -29 0 -31.2 2.5 -1.3 1.4 -6.8 15.9 -13.8 36.3 -6.3 18.7 -13 38.1 -14.9 43.2 l-3.3 9.2 -3.9 -0.3 c-3.9 -0.3 -4 -0.3 -7.7 -10.6 -10.6 -29.6 -21.8 -59.8 -23.2 -62.5 -0.9 -1.7 -5.1 -6.4 -9.2 -10.4 l-7.6 -7.4 -27.3 0 c-15.7 0 -28.1 0.4 -29.3 1.1 -3.7 2 -5.6 12.7 -3.4 18.7 0.5 1.4 4.1 6 8.1 10.2 l7.2 7.8 0 25.5 c0 14.9 -0.4 26.8 -1.1 28.5 -0.7 1.6 -2.4 4.3 -3.8 6.1 -3.5 4.1 -3.5 5.5 0.9 10.8 l3.5 4.3 0 33.8 c0 37.3 0.1 36.8 -6.6 38.1 -6.2 1.1 -8 3.8 -8 11.9 0 6.7 0.2 7.2 5 12.7 10 11.6 6.8 10.6 35.6 10.6 19.4 0 25.6 -0.3 27.2 -1.5z"/>
  <path d="M1146.7 362.7 c-2.1 -2.8 -4.9 -5.7 -6.3 -6.6 -2.3 -1.5 -2.7 -1.5 -4.6 0.1 -1.4 1.3 -3.5 1.7 -6.3 1.5 l-4.1 -0.3 0.2 -18.4 c0.1 -21.9 0.1 -20.3 -0.1 -47.7 l-0.1 -21.7 10.8 -0.5 10.8 -0.5 1.6 -3.5 c1.4 -3 2.2 -3.6 5.7 -3.6 3.1 0 4.8 0.8 7.3 3.6 l3.3 3.5 -0.2 17.6 c-0.3 14.8 -0.7 17.9 -2.2 19.4 -1.6 1.6 -1.6 2.1 0.3 5.2 1.8 3 2.1 5.6 2.1 28.5 l0 25.2 -3.3 1.7 c-1.7 0.9 -5 1.6 -7.3 1.6 -3.6 -0.1 -4.6 -0.7 -7.8 -5z"/>
  <path d="M1274.8 285.5 c0.5 -6.9 3 -13.9 5.6 -15.6 0.7 -0.4 3.5 -0.9 6.4 -0.9 l5.1 0 0 11.9 0 11.9 -8.8 0 -8.9 0 0.5 -7.4z"/>
  <path d="M1000.4 371.1 l-4.6 -5.4 0 -17.1 c0 -9.4 0.5 -20.3 1.2 -24.2 0.7 -3.9 1.1 -7.5 1 -8.1 -1.2 -8.2 -1 -22 0.5 -27.9 2.4 -9.4 4.6 -12.1 10.1 -12.6 l4.6 -0.3 0 12.8 c-0.1 10.3 -0.4 13.6 -2.1 16.6 -1.8 3.4 -1.8 4 -0.4 6.2 1.3 2 1.7 8.1 2.1 32 0.2 16.3 0.1 30.5 -0.2 31.6 -0.4 1.3 -1.7 1.8 -4.1 1.8 -2.9 0 -4.3 -1 -8 -5.3z"/>
  <path d="M937.2 362.6 c0 -2.3 0.7 -6.3 1.5 -9 1.4 -4.8 1.5 -4.9 6.6 -5.2 l5.2 -0.3 -0.8 8.5 c-0.4 4.7 -1.4 8.8 -2.1 9.2 -0.8 0.4 -3.4 0.9 -5.9 0.9 -4.7 0 -4.7 0 -4.7 -4z"/>
  <path d="M872.6 358.8 c-2.5 -8.2 -3.4 -32.5 -1.3 -38.4 1.2 -3.3 1.3 -5.1 0.5 -6.5 -1.6 -2.8 -1.4 -21.7 0.3 -28.6 2.9 -12.3 7.1 -17.4 14.3 -17.4 3.7 0 4.1 0.3 5.2 4.1 0.7 2.2 1.4 9.5 1.8 16.2 0.5 10.4 0.3 12.9 -1.3 16.5 -1.7 3.9 -1.7 4.4 -0.1 6.7 1.4 2.1 1.7 5.3 1.7 15.6 0 14.1 -1.8 24.9 -5.3 31.8 -2.5 4.8 -3.9 5.6 -9.9 5.6 -4.1 0 -4.3 -0.1 -6.1 -5.6z"/>
  <path d="M1918.9 363.3 c0 -2.1 1.8 -9.3 4.1 -16.2 l4.2 -12.5 4.6 -0.3 4.7 -0.3 -0.4 14.1 c-0.4 16.8 -0.8 17.4 -10.5 18.2 l-6.6 0.7 0 -3.7z"/>
 </g>
 <g fill="#e5b970">
  <path d="M355.8 514 c0 -3.4 1.1 -4.8 10.6 -13.3 38.1 -34.4 49.8 -64.5 35.8 -92.2 -7.1 -13.7 -18.2 -21.9 -53 -38.9 -27.7 -13.5 -33.3 -17.8 -35.7 -27.7 -1.7 -7.4 -0.9 -16.9 2 -22.6 3 -5.9 10.2 -12 23.5 -20.2 18.7 -11.6 25.3 -20.3 22.6 -30 -0.7 -2.6 -9.7 -15.6 -24.8 -36 l-23.8 -31.8 -0.9 20.6 -1 20.6 4.1 3.3 c9 7.1 16.7 15.1 18.8 19.6 2.5 5.2 3.1 19.5 1.3 24.6 -2 4.9 -8.7 10.4 -24.3 19.6 -18.1 10.7 -24.1 15.7 -28.4 23.5 -5.4 10 -4 20.2 4.3 30.2 1.6 1.8 8.1 7.4 14.4 12.3 15.1 11.6 22.6 19.4 26.4 27.4 2.7 5.5 3.1 7.8 3.1 15.4 0 6.3 -0.7 10.6 -2.2 14.6 -5.5 14.9 -25.8 29.2 -61.3 43.3 -33 13 -44.4 15.6 -45.5 10.5 -0.7 -3 -2.8 -31.3 -2.8 -37 l0 -4 19 0 c10.4 0 19 -0.2 19 -0.5 0 -0.3 -4.7 -8.2 -10.3 -17.7 -8.1 -13.5 -10.3 -17.9 -10.3 -21.2 l0 -4 4.9 0 c2.7 0 4.9 -0.3 4.9 -0.7 0 -0.4 -4.1 -7.2 -9.2 -15.1 -6.6 -10.2 -9.2 -15.3 -9.2 -17.7 0 -3.5 -0.1 -3.5 6.8 -4.9 0.9 -0.2 -21.6 -37.1 -22.7 -37.1 -0.3 0 -6 8.2 -12.5 18.3 -12 18.9 -12.5 20.1 -6.6 20.2 2 0 2.4 0.5 2.4 3.8 0 2.8 -2.2 7.2 -9.2 18.1 l-9.1 14.4 5.3 0.3 c5.3 0.3 5.4 0.4 5.4 3.7 0 1.8 -1.4 5.6 -3.1 8.4 -1.6 2.7 -6.7 11 -11.3 18.3 l-8.2 13.2 19.6 0 19.6 0 -0.8 17.1 c-0.4 9.3 -1.2 20.2 -1.5 24.1 l-0.8 7.1 -3.9 0.3 c-3 0.2 -6.4 -1 -14.4 -5.1 -37.9 -19.6 -70.4 -53.6 -90 -93.7 -32.2 -66.1 -28.9 -149 8.5 -211 10.8 -18 19.4 -28.9 34.7 -44.1 39.1 -38.9 88.4 -62 144.8 -67.9 15.8 -1.6 53.5 -0.7 67.4 1.7 41.9 7.2 79.2 23.5 111.4 49 10.7 8.5 31.6 29.8 39.6 40.5 14 18.8 23.8 37.5 31.8 61 9.5 27.7 11.8 45 11.1 81.4 -0.4 22.8 -0.9 28.1 -3.3 39.1 -10.3 47.2 -35.7 90 -71.4 120.7 -31.2 26.7 -75 48.1 -105.1 51.2 l-6.5 0.7 0 -3.8z m155.6 -182.2 c4.1 -19.3 4.9 -35.9 2.3 -55.3 -8.8 -67 -48.3 -123.4 -107.9 -154.1 -65.2 -33.7 -137.1 -32.8 -202.3 2.7 -64 34.8 -104.7 102.2 -104.7 173.3 0 14.3 2 32.1 4 37.6 0.8 2 2.6 0.2 13.9 -12.5 24.3 -27.4 56.1 -63.6 68.7 -78.1 11.9 -13.8 12.6 -14.3 16.6 -14.3 3.3 0 5.2 0.9 8.2 3.6 3.5 3 18.9 15.4 22.7 18.2 0.7 0.5 14 -16.4 35.8 -45.7 l34.6 -46.5 4.4 0 c3.8 -0.1 4.9 0.4 6.5 2.9 5.2 7.9 58.4 77.2 59.2 77.2 0.5 0 6.2 -4.3 12.6 -9.8 10.5 -8.8 12 -9.8 16.2 -9.8 4.4 0 4.7 0.2 15.7 13 15.2 17.7 91.4 105.1 91.6 105.1 0.1 0.1 1 -3.5 2 -7.7z m-106.3 -19.4 c1.5 -1.8 2.8 -3.8 2.8 -4.4 0 -2.4 -3.9 -7.4 -6.9 -8.9 -2.8 -1.4 -3.7 -1.4 -6.2 0 -8.5 4.3 -8.2 13.6 0.5 17.2 3.9 1.6 5.7 1 9.8 -3.9z"/>
  <path d="M2007.9 388.3 c0 -10.6 0.9 -13.1 3.3 -8.8 1.2 2.3 1.4 13.2 0.4 17.2 -0.4 1.3 -1.4 2.4 -2.2 2.4 -1.2 0 -1.5 -2.4 -1.5 -10.8z"/>
  <path d="M1517.3 392.7 c-12.1 -2.2 -22.1 -6.5 -31.2 -13.6 -19.9 -15.4 -29.2 -34.8 -34.2 -70.8 -1.5 -11.5 -3.5 -17.7 -6 -19.2 -2.1 -1.3 -1.1 -7.8 2.2 -14.2 2.1 -4 4 -10.7 5.4 -18.3 8 -43.2 29.3 -71.3 59.7 -78.8 3.4 -0.9 11.3 -1.5 18.4 -1.4 13.7 0 24.5 2.5 33.4 7.6 2.5 1.5 4.6 2.2 4.6 1.6 0 -2.1 6.4 -4.4 11.9 -4.4 l5.4 0 -0.2 36.1 -0.3 36 -10.5 0.3 c-10.3 0.3 -10.6 0.2 -11.1 -2.2 -5 -26.5 -11.1 -36.8 -25.2 -42.1 -5.3 -2 -6.2 -2 -11.1 -0.5 -14.9 4.4 -25.2 23.6 -27 50.1 -0.7 9.7 -0.5 10.1 2.8 15.9 4.2 7.5 4.2 10 0.1 17.2 -3 5.4 -3.3 6.6 -3.3 16.6 0.1 25.7 8.9 43.9 24.2 49.8 9.4 3.6 19.9 -0.2 23.6 -8.6 2.8 -6.2 3 -32.9 0.2 -37.5 -2.2 -3.7 -5.6 -5.4 -10.7 -5.4 l-3.8 0 0.3 -11.6 0.3 -11.7 33.6 -0.3 c18.5 -0.1 34.7 0 36.1 0.3 2.3 0.5 2.4 1.1 2.4 11.3 l0 10.6 -4.1 0.8 c-5.3 0.8 -8.9 4.7 -10.1 10.6 -0.4 2.6 -0.9 19.6 -1 38.1 l0 33.3 -7.8 0 c-7.5 0 -8 -0.1 -11.7 -3.8 l-4 -3.9 -5.5 3.7 c-8.4 5.7 -17.5 8.4 -30 8.9 -6 0.2 -13.1 0 -15.9 -0.5z"/>
  <path d="M867.8 391.5 c-20.9 -3.5 -36.6 -20.5 -43.3 -47.2 -1.2 -4.7 -2.7 -12.5 -3.4 -17.2 -0.8 -4.8 -2.1 -10.5 -2.9 -12.7 -1.8 -4.6 -1.6 -6.4 1.8 -20.4 8 -32.2 16.2 -47.3 30.4 -56.4 15.5 -10 39.3 -10.3 55.2 -0.8 14.4 8.7 23.1 24.4 28.5 52.3 2.8 14.2 2.9 20.1 0.4 35.3 -4.3 27.3 -10.3 42.1 -21.8 53.8 -11.9 12.3 -26.1 16.4 -45 13.3z m16.4 -31.3 c5.4 -5.6 8.6 -15.6 9.3 -29.4 0.5 -9.3 0.3 -11.1 -1.7 -15.3 -2.4 -5 -3 -11.2 -1.2 -12.3 2.5 -1.5 3.5 -9.4 2.2 -18.7 -1.6 -12.1 -4.7 -20 -9.3 -24.1 -2.1 -1.8 -4 -3.4 -4.3 -3.4 -1.8 0 -7.2 3.7 -9.1 6.4 -6.1 8.7 -9.7 30.8 -6.1 37.7 2.2 4.2 2.2 9.7 0.1 13.3 -3.7 6.4 -1.1 31.3 4.1 40.7 2.3 4 8.4 9.2 10.8 9.2 0.7 0 2.9 -2 5.2 -4.3z"/>
  <path d="M1269.9 391.5 c-25.8 -5 -42.8 -28.4 -47.4 -65.4 -0.7 -5.3 -1.8 -11 -2.7 -12.7 -2.1 -3.9 -2.1 -7.8 0 -11.8 0.9 -1.6 2.7 -8.6 4.2 -15.4 7.9 -37.4 26.5 -56.2 55.4 -56.2 20.2 0 35.1 9 43.4 26.1 5.7 12 7.4 21.4 7.5 43.3 l0.1 19 -32.5 0.5 -32.5 0.5 0.1 8.2 c0.2 11.9 3.7 21.8 10.1 28.3 6.2 6.2 11 7.4 18.1 4.7 6.3 -2.4 11.2 -6.7 15.6 -13.6 l3.5 -5.4 6.2 0 c5.1 0 6.6 0.4 8.6 2.5 8.4 8.8 -5.3 35 -22.6 43.4 -10 4.9 -22.7 6.2 -35 3.9z m21.8 -109.7 c-0.7 -12.8 -2.8 -19.3 -7.6 -22.7 -8.5 -6.1 -17.4 6.1 -19 25.9 l-0.7 7.8 13.9 0 13.9 0 -0.5 -11.1z"/>
  <path d="M1098.5 390.1 c-8.6 -3.1 -14.5 -9.9 -18.8 -21.3 -1.3 -3.7 -2 -10.6 -2.5 -27.7 -0.7 -18.1 -1.2 -23.5 -2.6 -26.5 -2.4 -4.8 -2.4 -10.3 0.1 -13.9 1.5 -2.4 2 -6 2.2 -19.6 0.5 -22.7 0.9 -21.7 -8.8 -22.1 l-7.8 -0.3 0 -10.7 0 -10.7 5 -1.3 c7.2 -1.7 15.7 -7.6 20.5 -14 5.3 -7.3 7.1 -10.7 10.7 -22.1 l3.1 -9.4 8.2 -0.3 8.2 -0.3 0 19.9 c0 11 0.4 20.5 1 21.4 0.8 1.2 4.2 1.7 13 2.1 l12 0.5 0 12.3 c0 14.4 1.2 13.3 -15.2 13.8 l-10.3 0.2 -0.3 16.3 c-0.2 12.6 0.1 17.8 1.5 23 1.7 6.8 1.7 8.8 -0.7 19.9 -2 9 -0.8 29.1 2.2 34.6 2.8 5.6 6.5 6.7 10.8 3.5 3.6 -2.6 11.7 -3.1 13.9 -1 2 2 1.6 14.4 -0.4 18.3 -2.9 5.6 -9.4 12 -15.1 14.6 -4.6 2.2 -7.2 2.6 -15.7 2.5 -5.7 0 -12.1 -0.7 -14.4 -1.4z"/>
  <path d="M588.1 386.5 c-0.4 -1.1 -0.8 -6.3 -0.8 -11.6 l0 -9.7 5.4 -1.7 c3.8 -1.3 6.1 -2.8 7.8 -5.4 2.5 -3.6 2.5 -4.3 2.5 -32.3 0 -26.4 -0.2 -29 -2.2 -32.9 -1.2 -2.3 -2.6 -4.4 -3.3 -4.9 -2.2 -1.4 -1.2 -8.6 2 -13 l2.9 -4.3 0.3 -28.4 c0.2 -19.4 -0.1 -29.2 -0.9 -30.7 -1.6 -3.1 -7.5 -6.5 -11.1 -6.5 l-3 0 0 -11.9 0 -11.9 52.5 0 c51.2 0 52.5 0 55.2 -2.3 2.3 -1.7 4.1 -2.1 9.1 -1.8 l6.3 0.3 0 34.2 0 34.2 -9 0.3 c-6.6 0.2 -9 -0.1 -9.3 -1.1 -0.2 -0.8 -1 -5 -1.6 -9.3 -1.4 -9.4 -4 -15 -9.3 -19.5 -5 -4.4 -7.3 -5 -22.2 -5.1 l-12.5 0 -0.3 28.5 -0.2 28.4 8 0 c10.3 0 13.2 -2.1 15.2 -10.8 l1.3 -6 7.8 -0.3 7.8 -0.3 0 33 0 33.1 -2.4 0.7 c-3.3 0.9 -11.1 0.9 -13.2 0 -1.2 -0.4 -1.7 -2.1 -1.7 -5.4 0 -5.6 -2.1 -11 -5.3 -13.9 -1.7 -1.6 -4 -2.2 -9.7 -2.2 l-7.3 -0.1 -0.3 29.1 c-0.2 24.4 0 29.5 1.4 32.2 2.1 3.9 5.2 6.1 10.6 6.9 l4.1 0.8 -0.3 11.6 -0.3 11.6 -36.7 0.3 c-34.1 0.2 -36.7 0.1 -37.4 -1.6z"/>
  <path d="M716.1 377.8 c0.3 -10.1 0.4 -10.5 2.9 -11.2 1.4 -0.3 3.7 -2 4.9 -3.6 2.1 -2.8 2.3 -4.8 2.6 -23.6 0.3 -19.1 0.2 -20.9 -1.8 -24.9 -2.8 -5.4 -2.8 -8.6 0 -13.3 2.1 -3.5 2.2 -5.2 1.8 -19.6 -0.3 -15.9 -0.3 -15.9 -3.4 -18.5 -1.6 -1.4 -4 -2.6 -5.2 -2.6 -1.8 0 -2.1 -0.9 -2.1 -9.7 0 -6.4 0.4 -10 1.4 -10.7 0.7 -0.7 4.2 -1.6 7.9 -2.3 3.6 -0.7 11.1 -2.7 16.6 -4.4 5.4 -1.8 12.1 -3.3 14.8 -3.3 l4.7 0 0.8 7.2 0.9 7.2 4.4 -4.3 c7.3 -7.1 12.8 -9.3 22.9 -9.3 13.9 -0.1 21.9 5.1 26 16.6 2 5.6 2.3 26.7 0.4 33.2 -0.8 2.5 -3 6.2 -5.7 8.8 -3.8 3.9 -5.4 4.7 -10.5 5.3 -7.6 1 -14.3 -0.8 -17.1 -4.6 -1.8 -2.2 -2.3 -4.3 -2.3 -10.5 0 -7.3 0.2 -8 3.3 -11 3.7 -3.6 4.1 -5.4 1.3 -6.9 -2.9 -1.5 -8.5 1.6 -12.1 6.9 -4.7 6.7 -7.1 15.1 -6.7 23.9 0.1 4.2 0.2 10.7 0.3 14.6 0.1 3.9 -0.4 9.8 -1.2 13 -1.8 8.2 -0.9 35.4 1.5 40 2 3.6 4.8 5.5 8.1 5.5 2.2 0 2.3 0.7 2.3 11.4 l0 11.4 -30.9 0 -31 0 0.3 -10.5z"/>
  <path d="M939.1 387.6 c-0.4 -0.3 -0.8 -5 -0.8 -10.3 l0 -9.7 3.6 -1.5 c7.6 -3.1 7.8 -3.8 7.7 -27.6 0 -17.8 -0.3 -21.8 -1.8 -24.7 -2.3 -4.3 -2.4 -8.1 0 -12.6 2.1 -4 3.1 -20.2 2 -29.5 -0.9 -7.2 -4.1 -11.4 -8.7 -11.4 l-2.8 0 0.3 -10.5 0.3 -10.5 8.7 -1.4 c4.8 -0.8 12.1 -2.8 16.3 -4.3 5.1 -2.1 9.7 -2.9 14.1 -3 l6.5 0 0.3 7.4 0.3 7.5 5.4 -5.1 c7.2 -6.6 13.5 -9.3 23.8 -10 25.3 -1.7 36.8 15.2 36.9 54.5 0.1 6.6 0.8 12.6 1.6 15.2 2 5.3 2.1 11.6 0.3 13.3 -1.1 1.1 -1.4 7.5 -1.4 24.7 l0 23.4 3 2.6 c1.6 1.4 3.9 2.6 5.1 2.6 1.7 0 2.1 1.2 2.7 9.2 0.4 5 0.5 9.9 0.1 10.8 -0.5 1.4 -3.9 1.6 -23.1 1.6 -12.4 0 -23.3 -0.5 -24.2 -1.1 -1.4 -0.9 -1.7 -6.4 -2.2 -35.6 -0.4 -30.5 -0.8 -34.8 -2.4 -37.4 -1.1 -1.5 -2 -4.4 -2 -6.4 0 -2.1 0.9 -4.9 2 -6.3 2.7 -3.9 2.7 -28.2 -0.1 -33.3 -3.7 -6.8 -8.1 -7.2 -13.6 -0.9 -6.9 7.8 -11.1 26.9 -7.4 34 2.3 4.3 2.2 8.1 -0.1 12.5 -1.6 2.9 -2 6.4 -2 23 0 14 0.4 20.5 1.5 23.1 1.5 3.5 6 6.7 9.3 6.7 1.3 0 1.6 1.7 1.6 10.8 l0 10.8 -30.2 0 c-16.6 0 -30.6 -0.3 -30.9 -0.8z"/>
  <path d="M1153.7 386 c-0.3 -1.4 -0.7 -6.1 -0.7 -10.3 l0 -7.9 4.1 -1.8 c6.8 -3.3 7.8 -6.6 7.8 -28 0 -16.1 -0.3 -19.1 -2.2 -23.2 -2.7 -6 -2.7 -8 0.1 -13.9 2 -4.1 2.2 -6.2 1.8 -19.7 -0.3 -14.2 -0.4 -15.3 -2.9 -17.9 -1.4 -1.5 -3.8 -2.8 -5.4 -3 l-2.8 -0.3 0 -10.3 0 -10.3 11.4 -2.3 c6.3 -1.3 15.1 -3.4 19.6 -4.7 4.4 -1.2 10.4 -2.3 13.1 -2.3 l5.1 0 0.3 34 c0.3 29.7 0.5 34.3 2.3 37.3 1 2 1.8 4.7 1.8 6.1 0 1.4 -0.9 4.2 -1.8 6.3 -1.6 3.1 -2 6.7 -2 23.8 0 22.9 0.8 25.9 7.6 28.3 3.3 1.2 3.8 2 4.3 5.7 0.4 2.5 0.5 7.2 0.3 10.4 l-0.3 6 -30.5 0.3 -30.6 0.2 -0.7 -2.4z"/>
  <path d="M1340.7 377.9 l0 -10.3 3.8 -1.6 c6.6 -2.7 6.9 -4.1 7.3 -27.7 0.2 -18.5 0 -21.7 -1.6 -24.1 -2.3 -3.5 -2.4 -8.6 -0.2 -12.6 1.6 -3.3 2.4 -13.6 1.8 -26.9 -0.2 -6.5 -0.7 -8.2 -3 -11.1 -1.7 -2.1 -3.8 -3.4 -5.4 -3.4 l-2.7 0 0.3 -10.5 0.3 -10.5 8.7 -1.4 c4.8 -0.8 12.9 -2.9 18 -4.8 6.4 -2.3 10.8 -3.1 14.1 -2.9 l4.8 0.3 0.3 7.1 0.3 7.2 5 -4.8 c7.3 -7.1 13.1 -9.3 23.6 -9.2 9.9 0 12.8 1 18.3 5.9 7.1 6.2 8.7 10.6 9.1 25.4 0.5 16.5 -0.7 21.3 -6.8 27.3 l-4.6 4.7 -9.3 0 c-8.7 0 -9.4 -0.2 -12.6 -3.1 -3.1 -2.9 -3.4 -3.6 -3.4 -11.2 0 -7.5 0.2 -8.2 3.3 -11.2 3 -2.9 3.1 -3.3 1.4 -5.1 -2.6 -2.9 -5.2 -2.4 -10.1 2 -7.4 6.7 -12.7 26.5 -9.2 34.8 2 4.7 2.2 11.3 0.3 13.2 -1.1 1 -1.4 7.2 -1.4 23.2 0 24.9 0.5 26.8 8.2 29.2 l4.2 1.2 0 10.7 0 10.6 -31.5 0 -31.5 0 0 -10.4z"/>
  <path d="M1651.2 377.3 l0.3 -11.2 3.8 -0.7 c5.2 -0.8 8.4 -3 10.3 -7.1 1.3 -2.8 1.6 -8.9 1.6 -32.2 l0 -28.7 -3.8 -5.6 c-4.4 -6.6 -5 -11.6 -1.5 -14.8 5.5 -5 5.9 -6.7 6.2 -37.2 l0.4 -28.5 -7.7 0.4 c-6.5 0.3 -8.1 0.9 -11.6 3.7 -6.1 4.9 -10 12.7 -11.5 23 l-1.2 8.9 -10.7 0 -10.6 0 0 -35.3 0 -35.3 7.4 0 c6.1 0 7.8 0.4 9.4 2.2 2 2.2 3.4 2.2 59.7 2.2 56.1 0 57.8 -0.1 60.5 -2.2 2.1 -1.6 4.3 -2.2 9.3 -2.2 l6.6 0 0 35.3 0 35.3 -10.8 0 -10.8 0 0 -5.6 c0 -12.6 -6 -24.3 -14.5 -28.4 -2.2 -1 -6.4 -1.7 -10.2 -1.7 -5.3 0 -6.5 0.3 -6.8 2 -0.2 1 -0.2 14.3 0.1 29.6 l0.5 27.8 3 4.4 c3.8 5.7 3.7 9.8 -0.3 16.2 l-3.3 5.1 0 29.1 c0 31.6 0.2 33.1 6.1 37.6 1.6 1.3 4.4 2.3 6.5 2.3 l3.7 0 0 11.4 0 11.4 -40.1 0 -40.2 0 0.3 -11.1z"/>
  <path d="M1789.8 377.5 l0 -10.8 3 -0.5 c5.2 -1.1 8.4 -3.3 10.2 -7.1 1.7 -3.4 2 -7.3 2 -31.5 0 -24.4 -0.3 -28.2 -2.1 -32 -1.1 -2.4 -2.7 -5 -3.7 -5.9 -3.1 -2.6 -2.4 -9.8 1.7 -15.3 l3.5 -4.8 0.3 -26.1 c0.2 -14.3 0.1 -27.6 -0.3 -29.4 -0.9 -4.9 -5.4 -9.1 -9.7 -9.1 -2 0 -4 -0.5 -4.8 -1.3 -1.5 -1.5 -1.8 -19 -0.4 -21.3 0.8 -1 7.9 -1.3 32.2 -1.1 l31.3 0.3 3.9 10.8 c2.2 6 11 31 19.6 55.6 8.6 24.5 15.8 44.7 16.2 44.7 0.3 0 9 -25.2 19.4 -55.9 l18.9 -55.9 32.9 0 33 0 0 11.3 0 11.3 -4.7 1.1 c-5.1 1.3 -8.7 4.4 -10.4 9.2 -0.8 1.8 -1.2 13.1 -1.2 28.4 l0 25.3 3.3 6.2 c4 7.6 4.1 12.1 0.5 17.5 -1.4 2.2 -2.9 5.4 -3.3 7.4 -0.4 1.8 -0.5 15.6 -0.3 30.5 0.3 24.5 0.5 27.4 2.4 30.2 2.4 3.6 7.1 6.2 11 6.2 l2.7 0 0 11.4 0 11.4 -37.4 0 -37.5 0 0.3 -11.1 0.3 -11.1 3.7 -0.8 c2 -0.4 4.9 -2.1 6.5 -3.6 l2.8 -2.8 0.2 -45.3 0.2 -45.2 -2.6 7.1 c-1.4 3.9 -10.6 30.7 -20.4 59.7 l-17.9 52.6 -10.5 0 -10.5 0 -19.4 -56.8 c-10.6 -31.2 -19.6 -57.1 -20 -57.5 -0.3 -0.3 -0.5 18.4 -0.3 41.7 0.3 42.2 0.3 42.3 2.8 45.8 1.4 2 3.8 3.9 5.4 4.2 7.2 1.6 6.7 0.8 6.7 12.5 l0 10.7 -29.8 0 -29.8 0 0 -10.8z"/>
  <path d="M1176.3 221.4 c-4.9 -1.2 -9.7 -4.9 -12.6 -9.7 -2.2 -3.5 -2.5 -5.4 -2.5 -15.1 0 -10.4 0.1 -11.2 3.3 -15.6 4.8 -6.6 9.1 -8.6 19.3 -8.6 10.8 0 15.7 2.3 20 9.4 2.7 4.7 3 6.2 3 15 -0.1 11.7 -2.5 17.4 -9.2 21.8 -4.7 3.1 -14.9 4.3 -21.3 2.7z"/>
 </g>
 <g fill="#080808">
  <path d="M1521 406.8 c-20.5 -5.5 -37.6 -19.2 -53.6 -42.6 -8.6 -12.6 -16.2 -34.2 -18.8 -53 -0.5 -4.6 -1 -5.2 -3.3 -5.2 -1.4 0 -2.9 0.5 -3.3 1.1 -0.3 0.7 -3.9 1.1 -7.9 1.1 -9.3 -0.1 -14.4 -2.4 -21.2 -9.7 -7.2 -7.6 -8.8 -7.2 -9.2 2.6 -0.2 4.2 0.2 9.4 0.9 11.6 1 3.3 0.9 5.1 -0.5 9 -1.2 3.7 -1.6 9.7 -1.6 23 l0 18 6.5 7.9 6.5 7.8 0 10.4 c0 14.5 2.1 13.7 -33.7 13.7 -15.9 0 -29.7 -0.3 -30.7 -0.7 -3 -1.2 -13.7 -14.6 -13.7 -17.4 0 -1.4 -0.3 -2.6 -0.8 -2.6 -0.3 0 -4 3.6 -8 7.9 -10 10.8 -19.3 15.5 -33 16.5 -18 1.4 -31.3 -3.1 -43.6 -14.9 -17.7 -17 -28.1 -36.4 -32.1 -60 -0.8 -4.7 -2 -8.7 -2.6 -8.9 -1.8 -0.7 -2.5 5.4 -2.5 23.8 l0 17.2 6 7.2 6 7.3 0 11.2 c0 11.1 0 11.3 -2.8 12.3 -1.5 0.7 -15.3 1.1 -31.2 1.1 l-28.4 0 -4.8 -4.9 c-2.6 -2.7 -5.5 -4.9 -6.5 -4.9 -1 0 -3.4 1.7 -5.4 3.8 -6.4 6.6 -11.9 8.6 -24.9 8.6 -9.7 0.1 -12.3 -0.3 -17 -2.5 -6.5 -2.9 -16.5 -12.7 -22.6 -22.3 -7.1 -11 -8.4 -16.7 -9.2 -41.2 -0.7 -20.3 -0.9 -22 -3.4 -26.4 l-2.6 -4.6 3 -5.4 c2.7 -5 2.9 -6.4 2.9 -17.4 0 -11.5 -0.1 -12 -2.6 -13.1 -1.4 -0.7 -5.1 -4.1 -8.2 -7.7 l-5.6 -6.4 -0.5 -8.9 c-0.5 -7.9 -0.3 -9.2 1.7 -11.8 1.3 -1.5 3.9 -3.3 5.9 -3.6 13.3 -2.9 23.4 -14.2 29.5 -33.1 3.9 -12.3 6.3 -14.5 14.9 -13.9 5.9 0.4 6.7 0.9 11.8 5.9 7.4 7.1 8.8 10.6 8.6 21.5 -0.1 4.9 -0.2 10.4 -0.1 12.4 l0.1 3.5 6.2 0 c5.9 0 6.5 0.3 10.8 4.6 4.3 4.2 4.9 4.6 7.1 3.1 1.4 -0.9 7.1 -2.4 12.7 -3.5 5.5 -1.1 10.4 -2.2 10.6 -2.5 0.2 -0.2 -1.8 -2.7 -4.6 -5.5 -11.2 -11.5 -15.3 -20.5 -14.4 -31.3 0.9 -10.8 7.2 -20.2 16.3 -23.9 5.6 -2.4 15.5 -2.2 21.3 0.4 6.4 2.9 15.8 12.9 19.9 21.3 3.1 6.4 3.4 7.5 2.9 15.9 -0.4 9.5 -3 15.9 -8.4 20.7 l-2.2 2 3.7 5 3.8 4.9 0 30.2 c0 35.8 1.4 39.7 6 16.4 8.2 -42.1 36.7 -66.6 69.1 -59.8 25.4 5.3 48.3 34.8 52.1 67.1 0.8 6 1.6 10.8 2 10.8 0.3 0 1.4 -1.5 2.5 -3.4 1.5 -2.7 1.8 -6 1.8 -16.9 l0 -13.6 -5.4 -6.5 -5.4 -6.5 0 -8.2 c0 -4.7 0.7 -9.5 1.4 -11.1 1.4 -2.8 1.7 -2.9 15.8 -5.4 3.8 -0.7 10.5 -2.7 15 -4.4 11.3 -4.4 14.9 -4.2 20 1.3 l4 4.3 4.2 -2.6 c9.5 -6 20.8 -7.1 30.5 -2.9 6 2.6 17 13.3 20.4 19.6 0.9 1.8 1.8 3.1 2.1 2.9 0.2 -0.1 1.4 -4.3 2.6 -9.2 8.7 -34 30.2 -59 58.1 -67.8 15.6 -5 38.7 -2.7 52.2 5.1 l4.4 2.6 2.7 -3.1 c2.9 -3.3 8.8 -5 13.2 -3.9 1.4 0.3 6.3 4.4 10.8 9 l8.2 8.5 0 35.9 c0 33.4 -0.1 36 -2 37.6 -1.6 1.5 -4.3 1.8 -13.5 1.8 l-11.5 0 -6.9 -7.6 c-6.8 -7.4 -6.9 -7.7 -8.8 -17.4 -2.8 -14.8 -5.6 -18.9 -14 -20.3 -4.9 -0.8 -14.8 3.8 -18.9 8.7 -7.1 8.4 -11.3 23.3 -11.3 40.4 0 10.2 0.2 11.1 3.3 15.7 1.7 2.7 3.3 5.7 3.3 6.8 0 1.1 -1.6 4.2 -3.5 6.9 -3.6 4.9 -3.6 5.1 -3.6 17 0 20.4 4.8 34.6 12.5 37.2 5.3 1.7 12.6 0.2 16.2 -3.4 2.7 -2.7 2.8 -3.5 3.3 -16.4 0.2 -8.9 -0.1 -13.6 -0.8 -13.6 -0.7 0 -4.3 -3.7 -8.2 -8.1 l-7.2 -8.2 0 -10.6 c0 -8.9 0.3 -11.2 2.1 -13.2 l2.1 -2.6 35.4 0 35.3 0 5.1 4.9 c2.7 2.7 6.4 6.8 8.1 9.1 2.9 3.9 3.1 5 3.1 13.7 0 10.2 -0.9 12 -6.6 13.5 -1.6 0.3 -4 1.5 -5.4 2.7 l-2.6 2.1 -0.5 37.1 -0.5 37.1 -2.6 2.1 c-1.8 1.5 -4.2 2.1 -8.9 2.1 -5.7 0 -6.8 -0.3 -10.6 -3.8 -2.3 -2.1 -4.8 -3.8 -5.5 -3.8 -0.8 0 -3.9 1.5 -6.9 3.4 -9.5 5.9 -16.2 7.7 -30.5 8.1 -10.6 0.3 -14.5 0 -20.9 -1.7z m17.1 -17.2 c8.8 -1.5 17.7 -5.1 24.1 -10 3.1 -2.3 6 -4.2 6.4 -4.2 0.4 0 3.1 2.2 6.2 4.9 4.6 4.1 6.1 4.9 9.9 4.9 l4.4 0 0 -33.3 c0.1 -18.4 0.5 -35.5 1 -38.1 1.2 -6 4.8 -9.9 10.1 -10.6 l4.1 -0.8 0 -7.4 c0 -6.8 -0.2 -7.5 -2.4 -8 -1.4 -0.3 -16.2 -0.4 -32.9 -0.3 l-30.4 0.3 -0.3 8.5 -0.3 8.4 3.8 0 c5.1 0 8.6 1.7 10.7 5.4 1.5 2.5 1.8 6.2 1.8 21.4 0 16.8 -0.2 18.7 -2.4 23.1 -6.7 13.1 -28.9 13.3 -41.2 0.4 -8.7 -9.1 -12.8 -23.6 -12.8 -45.5 0 -13.6 0.1 -14.3 3.1 -19.5 l3.1 -5.4 -3.4 -5.7 c-3.3 -5.9 -3.3 -5.9 -2.6 -19 1.3 -29.2 11.3 -48.7 27.1 -53.4 7.3 -2.2 10.4 -2.1 17.4 0.5 14.2 5.3 20.3 15.5 25.3 42.1 0.4 2.4 1 2.5 7.8 2.2 l7.3 -0.3 0.3 -32.8 c0.2 -32.5 0.2 -32.9 -2 -32.9 -2.7 0 -8.7 2.9 -8.7 4.2 0 2.5 -4.2 2 -11.3 -1.4 -11 -5.4 -19.3 -7.5 -29.9 -7.6 -37.7 -0.2 -65.3 29.3 -74.8 80.2 -1.4 7.6 -3.4 14.3 -5.4 18.3 -2.8 5.5 -3 6.6 -1.7 8.1 2.9 3.5 3.9 6.7 5.5 18.8 3.3 23.8 7.8 38.2 16.3 51.5 11.1 17.5 29 29.4 49.1 32.9 7.3 1.2 10.7 1.2 17.6 0.1z m-240.9 -3.3 c11.6 -4.3 20.2 -12.7 26 -25.1 4 -8.4 4.1 -10.4 1 -13.8 -3.9 -4.2 -7.7 -3.4 -11.6 2.7 -6.6 10.3 -14.6 15.3 -24.8 15.4 -7.4 0 -11.7 -1.8 -16.6 -7.3 -6.1 -6.6 -9 -16.7 -9 -30.7 l-0.1 -11.4 32.5 -0.5 32.5 -0.5 -0.2 -16.8 c-0.2 -19 -2.2 -28.7 -7.9 -40.1 -8.8 -17.5 -27.8 -27.3 -46.3 -24.2 -23.2 4 -38.5 22.6 -45.5 55.4 -1.5 6.8 -3.4 13.7 -4.1 15.2 -1.3 2.5 -1.3 3.4 0 5.7 0.8 1.5 2 7.2 2.6 12.5 3.9 31.7 16.5 52.9 36.6 61.8 11.3 5.1 24.4 5.6 34.9 1.6z m-171.8 -0.5 c5.6 -2.6 12.1 -9 15.1 -14.6 3 -5.9 1.8 -13.1 -2.3 -13.1 -0.7 0 -3.1 1.2 -5.3 2.7 -7.1 4.8 -13.8 2.8 -17.4 -5 -1.7 -4.1 -2.1 -7.3 -2.1 -23.8 0 -13.5 0.4 -19.7 1.4 -21.4 1.1 -2.1 1.1 -3.5 -0.3 -8.2 -1.3 -4.6 -1.6 -10.3 -1.4 -25.8 l0.3 -20 10.3 -0.2 c16.1 -0.4 15.2 0.1 15.2 -10.5 l0 -9 -12 -0.5 c-8.8 -0.3 -12.3 -0.9 -13 -2.1 -0.5 -0.9 -1 -10.4 -1 -21.4 l0 -19.9 -5 0.3 -5 0.3 -3.1 9.4 c-3.7 11.4 -5.4 14.9 -10.7 22.1 -4.8 6.4 -13.3 12.3 -20.5 14 l-5 1.3 0 7.5 0 7.5 7.8 0.3 c7.3 0.3 7.9 0.5 8.6 2.8 0.3 1.4 0.4 11.6 0.2 22.6 -0.3 17.1 -0.7 20.4 -2.3 23 -2 2.8 -2 3.1 -0.1 6.9 1.5 3.3 2.1 8.5 2.7 26.8 0.5 16.9 1.2 24 2.5 27.7 5.9 15.9 14.8 22.7 29.9 22.7 5.2 0.1 8.5 -0.5 12.5 -2.5z m87.1 -3.8 c0.2 -1.4 0.1 -4.7 -0.2 -7.2 -0.7 -3.9 -1.2 -4.7 -4.4 -5.9 -6.9 -2.5 -7.6 -5.1 -7.6 -31.6 0 -19.3 0.3 -23.9 1.7 -26.7 1.6 -3.1 1.6 -3.7 0 -6.5 -1.5 -2.6 -1.7 -8.5 -2.1 -37 -0.3 -30.5 -0.5 -34 -2.2 -34 -0.9 0 -5.4 1.1 -9.9 2.3 -4.6 1.3 -13.3 3.4 -19.6 4.7 l-11.4 2.3 0 7.1 c0 6.8 0.1 7.1 2.8 7.4 1.6 0.2 4 1.5 5.4 3 2.5 2.7 2.6 3.6 2.9 21.3 0.3 16.2 0.1 18.9 -1.6 22.5 -2 3.9 -2 4.2 -0.1 8.4 1.6 3.6 2 7.6 2 25.9 0 24.9 -0.8 27.9 -7.8 31.2 -3.8 1.7 -4.1 2.2 -4.1 6.5 0 2.5 0.3 5.6 0.7 7.1 l0.7 2.4 27.3 -0.2 27.2 -0.3 0.3 -2.6z m187.9 -4.2 l0 -7.5 -4.2 -1.2 c-7.9 -2.4 -8.2 -3.9 -8.2 -32.3 0 -19.4 0.3 -25.5 1.4 -26.8 1.3 -1.5 1.2 -2.5 -0.3 -6.6 -2.3 -6 -1.5 -17.9 1.8 -28.9 4 -12.9 15.3 -20.7 22.3 -15.5 4.4 3.3 4.6 8.7 0.2 12.8 -2.6 2.5 -3.3 4 -3.3 7.9 0 3.9 0.5 5.3 3.4 7.9 2.9 2.7 4.2 3.1 9.3 3.1 5.6 0 6.3 -0.3 10.6 -4.7 6 -5.9 7.4 -11.2 6.8 -24.1 -0.5 -11.3 -2.7 -16.6 -9.1 -22.1 -5 -4.4 -8.4 -5.6 -15.2 -5.6 -9.9 0 -19.4 5.9 -26.6 16.3 -2.1 3 -4 5.5 -4.4 5.5 -0.5 0 -0.9 -4.9 -0.9 -10.8 0 -8.8 -0.3 -11.1 -1.6 -11.5 -1 -0.4 -6 0.9 -11.2 2.7 -5.2 1.8 -13.3 4 -18.1 4.8 l-8.7 1.4 -0.3 7.3 c-0.3 7.1 -0.2 7.3 2.4 7.3 1.5 0 3.7 1.2 5.3 3.1 2.3 2.8 2.7 4.6 3.4 15.7 0.9 14.2 0 24.6 -2.3 29.1 -1.3 2.7 -1.2 3.4 0.4 6 1.7 2.6 2 5.4 1.6 27.4 -0.3 27 -0.7 28.1 -7.3 30.8 -3.8 1.6 -3.8 1.6 -3.8 8.7 l0 7.2 28.2 0 28.2 0 0 -7.4z m-241.9 -14.9 l3.3 -1.7 0 -21.9 c0 -20 -0.2 -22.2 -2.2 -25.5 -2.7 -4.3 -2.8 -8.6 -0.2 -11.4 1.5 -1.7 1.8 -4.6 2.2 -16.4 l0.2 -14.2 -3.3 -3.5 c-1.7 -2 -3.6 -3.6 -4 -3.6 -0.5 0 -1.6 1.6 -2.5 3.6 l-1.6 3.5 -10.8 0.5 -10.8 0.5 -0.3 16.8 c-0.2 13.5 0.1 17.7 1.5 21.8 1.7 4.7 1.7 5.3 0 10.2 -2 6.1 -2.5 31.3 -0.7 32.5 0.7 0.3 2.4 -0.3 3.9 -1.5 1.6 -1.3 3.7 -2.3 4.7 -2.3 3 0 8.1 3.8 12 9 2.1 2.8 4.2 5.1 4.7 5.1 0.4 0 2.3 -0.8 4 -1.6z m188.5 -0.8 c1 -1 1.3 -7.7 1.3 -23.3 0 -18.5 -0.3 -22.6 -1.7 -24.7 -1 -1.5 -2.2 -2.7 -2.7 -2.7 -0.5 0 -1 4.1 -1 9.1 0 13.2 2 12.6 -35.5 12.6 l-30.7 0 0 3.7 c0 4.7 1.8 14.4 3.5 18.3 1.6 4.1 5.2 5.4 11.2 3.9 6.2 -1.5 12.5 -7.1 17.4 -15.1 5.5 -9.1 9.7 -9.5 18.3 -2.3 4.1 3.5 14.8 17.7 14.8 19.7 0 2.4 3.1 2.8 5.2 0.8z m-152.5 -146.9 c9 -5.7 11.8 -20.1 6 -30 -3.7 -6.2 -9.3 -9.4 -16.7 -9.4 -6.7 0 -11.9 2.8 -16.1 8.6 -2.9 4.1 -3.3 5.5 -3.3 12.4 0 6.3 0.5 8.6 2.5 11.8 6.4 10.2 17.9 13 27.6 6.7z"/>
  <path d="M1261.1 295.3 c-1 -1.5 1.4 -21.2 3.3 -27.3 1.1 -3.9 3.1 -7.3 5.9 -10 3.6 -3.6 4.8 -4.1 9.2 -4.1 11.2 0 14.8 6.5 15.5 28 l0.4 14.3 -16.8 0 c-9.3 0 -17.1 -0.4 -17.5 -0.9z m27.6 -14.3 c0 -7.6 -0.2 -8.7 -1.8 -8.7 -1.1 0 -2.5 0.4 -3.1 0.9 -2 1.3 -4.7 7.3 -5.4 12 l-0.8 4.4 5.6 0 5.5 0 0 -8.7z"/>
  <path d="M875.7 405.7 c-13.2 -2.8 -26.1 -12.4 -37.5 -27.7 -11.6 -15.7 -16.5 -27.9 -19.7 -49.4 -1 -6.8 -2.5 -13.6 -3.4 -14.9 -0.9 -1.3 -1.5 -3 -1.5 -3.9 0 -1.1 -1.7 -1.5 -6.2 -1.5 -8.1 0 -12.8 -2.1 -18.8 -8.2 -5.9 -6.1 -9.2 -6.6 -10.2 -1.7 -1 5.3 -0.8 9 1 13.9 1.3 3.9 1.3 5 0 8.9 -1.2 3.3 -1.6 9.7 -1.6 23.4 l0 19 6.3 7.1 6.2 7.2 0 10.6 c0 7.3 -0.4 11.1 -1.4 12 -1.1 1.1 -8.7 1.5 -31.8 1.7 l-30.4 0.3 -6.2 -6.7 c-3.4 -3.6 -6.5 -7.4 -6.9 -8.5 -1.1 -2.6 -1 -16.9 0.1 -20 0.5 -1.4 2.6 -3.3 4.7 -4 2 -0.9 3.9 -2.1 4.3 -2.6 0.4 -0.7 0.9 -10.7 0.9 -22.3 0 -19.2 -0.2 -21.5 -2.2 -24.7 -2.7 -4.4 -2.7 -7.9 0 -11.4 2 -2.4 2.2 -4.3 2.2 -16.7 l-0.1 -13.9 -4.8 -5.1 c-4.2 -4.8 -5.1 -5.2 -9.7 -5.2 -4.7 0 -5.3 -0.4 -11.2 -6.6 -7.8 -8.1 -7.9 -8.2 -9.1 -17 -0.5 -3.9 -1.7 -8.4 -2.7 -9.7 -1.5 -2.5 -2.1 -2.6 -13.8 -2.3 l-12.1 0.3 -0.3 15.7 c-0.3 16.2 0.2 22.8 2 22.8 2.1 0 4.3 -3.6 5 -7.7 0.4 -2.4 1.6 -5.5 2.8 -6.9 1.7 -2.3 3 -2.7 8 -2.7 7.7 0 11.1 1.8 17.1 9.3 l5 6.1 0 31.9 0 32 -2.7 2.6 c-2.2 2.3 -3.7 2.7 -9.1 2.7 -3.6 0 -7.3 -0.3 -8.1 -0.7 -3.7 -1.4 -12.3 -13.1 -13 -17.7 -0.7 -4.4 -1.7 -5.2 -5.4 -3.8 -1.5 0.5 -1.7 3.8 -1.7 25.4 l0 24.8 8.1 7.9 8.1 8 0 11.4 c0 9.8 -0.3 11.7 -2 13.2 -1.8 1.6 -6.1 1.8 -38.5 1.8 l-36.6 0 -7.1 -7.3 c-6.9 -7.3 -7.1 -7.5 -7.3 -13.9 -0.5 -15.8 1 -20.1 7.5 -20.1 1.4 0 3.8 -1.2 5.2 -2.7 l2.7 -2.6 0 -29.6 0 -29.7 -3.8 -5.9 c-4.4 -6.8 -4.3 -8.9 0.7 -15.6 l3.1 -4.3 0 -24.3 0 -24.3 -7.6 -8.1 -7.6 -8.1 0 -11.6 c0 -10.2 0.3 -11.9 2.2 -14 l2.3 -2.4 51.4 0 c49.5 0 51.7 -0.1 55.5 -2.2 4.6 -2.4 10.5 -2.7 14.1 -0.8 1.3 0.8 5.1 4.4 8.4 8.2 l6.1 7.1 0 22 0 22 2.6 0 c1.4 0 8.1 -1.7 14.8 -3.8 6.6 -2.1 13.3 -3.8 14.9 -3.8 1.7 0 4.3 1.6 7.2 4.4 4.4 4.3 4.6 4.4 7.3 2.6 15.4 -10.1 30.7 -8.2 43.6 5.2 2.9 3 7.1 9.1 9.2 13.5 l3.9 7.9 4.8 -7.2 c6.6 -9.7 13.5 -16.1 22.2 -20.5 23.5 -11.7 49 -5.5 67.4 16.4 11.7 14 17.1 24.4 21.4 41.1 l1.8 7.6 0.9 -4 c0.4 -2.2 0.5 -7.9 0.2 -12.8 -0.7 -8.5 -0.8 -8.9 -5.6 -14.6 -4.2 -5 -5.1 -6.7 -5.6 -11.7 -0.9 -8.6 0.4 -15.7 3 -17.1 1.2 -0.5 5.2 -1.6 8.9 -2.2 3.7 -0.7 11.8 -2.8 18 -4.9 14.8 -4.9 16.7 -4.8 21.7 0.7 2.2 2.4 4.3 4.3 4.8 4.3 0.4 0 2.7 -1.2 5 -2.6 10.3 -6.5 24.4 -7.6 34.7 -2.6 6.3 3 15 11.6 20.7 20.5 6.6 10.2 8.6 18.1 9.9 38.9 0.7 11.2 1.6 19.7 2.7 22.9 1.7 4.6 1.6 5.1 -0.2 8.7 -1.6 3 -2.1 6.9 -2.4 22.8 l-0.4 19.2 6.1 7.4 6.2 7.5 -0.3 10.8 c-0.4 14 0.5 13.6 -25.6 13.6 -22.6 0 -23.5 -0.2 -29.5 -8 -4.9 -6.3 -6.5 -6.4 -6.5 -0.1 0 8.2 -0.4 8.2 -34.2 7.9 l-29 -0.3 -6.4 -6.8 c-6.2 -6.6 -6.4 -6.9 -6.4 -12.7 0 -3.3 -0.4 -6 -1 -6 -0.5 0 -3.1 3 -5.9 6.8 -8.5 11.7 -15.9 17.6 -26.8 20.9 -6.2 2 -20.8 2.8 -26.8 1.5z m17.9 -19.7 c15.4 -5.6 28.3 -22.9 33.8 -44.8 2.2 -8.9 5.6 -29.3 5.7 -34.2 0 -4.3 -4.3 -25.9 -6.9 -33.6 -6.7 -20.7 -19.3 -34.1 -36.2 -38.5 -15.2 -3.9 -30.2 -0.2 -42.5 10.6 -9.5 8.4 -18.7 27.1 -22.6 46.3 -1 5.1 -2.5 10.8 -3.4 12.8 -1.2 2.9 -1.2 4 0.1 7.1 0.8 1.8 2 7.4 2.7 12.1 4.8 32.5 16.1 52.1 35 60.7 11 5.1 22.9 5.5 34.2 1.4z m-234.3 -9.8 l0.3 -8.4 -4.1 -0.8 c-5.4 -0.9 -8.6 -3 -10.6 -6.9 -1.4 -2.7 -1.6 -8.1 -1.4 -35.5 l0.3 -32.3 10.4 0 c9 0 10.8 0.3 12.9 2.2 3.4 3 5.4 8.2 5.4 14 0 5.4 1.8 6.8 7.6 5.5 l3.3 -0.8 0 -29.7 0 -29.8 -4.6 0.3 -4.6 0.3 -1.3 6 c-2.1 9.4 -4.6 10.8 -18.4 10.8 l-11.3 0 0.2 -31.7 0.3 -31.8 15.7 0 c18.2 0.1 20.3 0.4 25.5 5.1 5.3 4.6 7.9 10.1 9.3 19.5 1.8 11.5 1.3 10.7 7.7 10.4 l5.7 -0.3 0 -30.9 0 -30.9 -3 -0.3 c-1.7 -0.2 -4.1 0.5 -5.7 1.8 -2.8 2.3 -4 2.3 -55.3 2.3 l-52.5 0 0 8.7 0 8.7 3 0 c3.6 0 9.4 3.4 11.1 6.5 0.8 1.5 1.1 12.3 0.9 34 l-0.3 31.7 -3.1 4.7 c-2.8 4.1 -2.9 4.8 -1.5 6.5 5 5.6 5.2 7.2 5.2 40.7 0 31.5 0 32 -2.5 35.6 -1.7 2.6 -4 4.1 -7.8 5.4 l-5.4 1.7 0 6.4 c0.1 11.2 -3.1 10.3 34.9 10 l33.4 -0.3 0.3 -8.4z m115.2 0.8 c0 -7.5 -0.2 -8.1 -2.3 -8.1 -3.5 0 -6.2 -2 -8.1 -5.6 -2.4 -4.7 -3.5 -37.6 -1.5 -46.4 0.8 -3.3 1.2 -7.7 1.1 -9.8 -1.2 -24 0.1 -32.4 6.5 -41.9 5.2 -7.5 15 -10.4 19.5 -5.9 3.4 3.4 2.8 7.7 -1.6 11.9 -3.1 3 -3.8 4.4 -3.8 8.2 0 12.3 14.8 15.9 24.1 6.1 4.9 -5.2 6.3 -10.1 6.3 -21.5 0 -14.3 -4.3 -23.1 -13.7 -27.6 -13 -6.4 -26.3 -0.8 -38.3 16.2 l-3.4 4.8 0 -7.1 c0 -10.3 -1.1 -17.1 -2.8 -17.1 -0.8 0 -6 1.4 -11.4 3.3 -5.5 1.7 -13 3.8 -16.6 4.4 -3.7 0.7 -7.3 1.6 -7.9 2.3 -0.9 0.7 -1.4 3.7 -1.4 7.5 0 5.6 0.2 6.4 2.1 6.4 1.2 0 3.6 1.2 5.2 2.6 l3 2.6 0.3 19.2 c0.3 17.2 0.1 19.4 -1.7 22.7 -2.1 3.4 -2.1 3.6 0 7.2 1.8 3.5 2 6.1 1.7 27.9 -0.3 22.5 -0.4 24.2 -2.6 27.1 -1.2 1.6 -3.5 3.3 -4.9 3.6 -2.4 0.5 -2.6 1.2 -2.9 7.9 l-0.3 7.3 27.8 0 27.7 0 0 -8.1z m222.4 0.5 c0 -6.2 -0.3 -7.6 -1.6 -7.6 -3.4 0 -7.8 -3.3 -9.3 -6.7 -1.1 -2.7 -1.5 -9.4 -1.5 -26.4 0 -19.2 0.3 -23.3 1.8 -26 1.5 -2.9 1.6 -3.6 0.1 -6.4 -2.5 -4.8 -1.4 -21.9 1.8 -30.4 2.8 -7.5 7.8 -13.3 12.5 -14.6 5 -1.4 10.3 0.8 13 5.3 2 3.4 2.2 5.6 2.2 20.6 0 14.4 -0.3 17.2 -2 19.7 -2 2.8 -2 3 0 5.9 1.7 2.7 2.1 6.6 2.5 37.5 0.4 29.2 0.8 34.7 2.2 35.6 1 0.7 10.1 1 21.2 0.8 l19.5 -0.2 -0.1 -2.7 c-0.3 -11.5 -0.4 -11.9 -2.5 -11.9 -1.2 0 -3.6 -1.2 -5.2 -2.6 l-3 -2.6 0 -26.6 c0 -20.3 0.3 -26.9 1.4 -28.2 1.2 -1.4 1.2 -2.5 -0.2 -6.7 -1.1 -3.1 -1.7 -8.8 -1.7 -15.5 0 -22.5 -4.8 -39.9 -13 -47.3 -8.1 -7.3 -20.1 -8.8 -31.1 -3.9 -5.3 2.4 -13.9 10.1 -18.3 16.5 l-3.1 4.4 -0.5 -11.8 -0.5 -11.8 -3.5 0.1 c-2 0.1 -6.8 1.4 -10.8 3 -4 1.5 -11.3 3.5 -16.1 4.2 l-8.7 1.4 -0.3 7.3 c-0.3 7.2 -0.3 7.3 2.5 7.3 4.6 0 7.8 4.2 8.7 11.3 1.3 10.1 0.1 32.1 -1.8 35.9 -1.6 2.9 -1.6 3.5 0 6.5 1.5 2.7 1.7 7.4 1.8 27.8 0 27.4 0 27.6 -7.8 30.8 -3.5 1.5 -3.6 1.7 -3.6 7.9 0 3.5 0.3 6.7 0.8 7.1 0.3 0.4 12.8 0.8 27.7 0.8 l26.9 0 0 -7.6z m12.3 -33.5 c-0.2 -24.9 -0.4 -27.4 -2.5 -31.5 l-2.3 -4.2 2.7 -5.5 c2.4 -4.6 2.8 -6.9 2.8 -14.9 0 -6.7 -0.3 -9.2 -1.3 -8.9 -4.7 1.6 -9 15.8 -8 26.3 1.1 10.5 1.1 14.9 -0.2 22.3 -0.8 3.9 -1.3 13.3 -1.3 20.9 l0 13.9 4.6 5.4 c2.5 2.9 4.8 4.9 5.2 4.3 0.3 -0.7 0.5 -13.3 0.3 -28.2z m-64.8 18.5 c0.7 -0.4 1.5 -3.1 1.8 -6 0.7 -4.4 0.4 -5.2 -1.1 -4.9 -1.4 0.2 -4.6 7.6 -4.7 11 0 1 2.4 1 3.9 -0.1z"/>
  <path d="M870.9 365.2 c-7.7 -5.2 -11.9 -18.3 -12 -38.2 -0.1 -9.2 0.3 -12.7 1.7 -15.4 1.6 -3.4 1.6 -3.8 0 -7.1 -1.5 -2.8 -1.7 -5.6 -1.2 -15.9 1 -22.9 7.8 -34.8 19.6 -34.8 5.3 0 10.7 5 13.6 12.5 4.6 12.1 5.5 33.3 1.8 39.1 -1.5 2.3 -1.4 2.8 0.5 6.6 2 3.8 2.2 5.6 1.7 18.3 -0.7 17.6 -3.1 26.7 -9.3 33.1 -3.5 3.7 -4.8 4.3 -8.5 4.3 -2.7 0 -5.7 -0.9 -8 -2.5z m10.4 -4.7 c4.8 -1.8 9.2 -17.9 9.2 -33.5 0 -7.9 -0.4 -10.4 -2.2 -13 -2.8 -4.2 -2.7 -7.1 0.1 -11.9 2.2 -3.6 2.3 -5 1.6 -13.3 -0.8 -9.9 -2.4 -17.6 -3.7 -17.6 -2 0 -5.9 3.7 -7.7 7.4 -4.7 9.4 -6.1 26.4 -2.8 34.2 1.5 3.7 1.5 4.3 -0.2 7.6 -2.7 4.9 -2.7 25.8 0 34.7 2 6.3 2.4 6.7 5.6 5.5z"/>
  <path d="M1655.5 396.6 l-7.8 -8 0 -10 c0 -5.4 0.5 -10.8 1.1 -11.9 0.7 -1.3 3.7 -2.8 7.2 -3.9 4.6 -1.3 6.2 -2.4 7.1 -4.4 0.5 -1.4 1 -15.7 1 -31.7 l0 -29.1 -3.8 -5 c-5.1 -6.7 -5.1 -11.2 0 -16.9 l3.8 -4.2 -0.2 -21.5 -0.3 -21.6 -2.5 2.7 c-4.3 4.6 -6.5 10.1 -7.8 19.5 -0.7 5 -1.7 10 -2.2 11 -1.3 2.3 -10 3.5 -18.5 2.5 -6.3 -0.8 -6.5 -0.8 -13.5 -8.8 l-7.1 -8 0 -34.1 0 -34.1 2.6 -2.9 c2.2 -2.5 3.4 -3 7.9 -3 3.6 0 6.6 0.8 9.2 2.4 3.8 2.4 4.1 2.4 60.3 2.4 l56.5 0 5.2 -2.8 c7.6 -4 12 -3.1 19.1 3.6 2.9 2.8 6.7 7.2 8.5 9.4 l3.1 4.2 0 32.8 c0 41.1 1 38.7 -16.1 38.3 l-11.5 -0.3 -6.8 -7.8 c-6.6 -7.6 -6.8 -8.1 -6.8 -13.8 0 -3.1 -0.3 -7.4 -0.7 -9.2 -0.7 -3.3 -0.9 -3.4 -6.5 -3.4 l-5.9 0 0 26.4 0 26.4 4.3 5.9 c2.4 3.1 4.3 6.8 4.3 8.1 0 1.3 -1.7 4.1 -3.8 6.4 -2.2 2.4 -4.2 5.5 -4.7 7.1 -0.4 1.5 -0.8 14.1 -0.8 27.8 l0 24.9 7.8 8.1 c6.8 7.2 7.8 8.8 8.5 13.3 1 6.9 -0.3 17 -2.4 19.5 -1.6 1.7 -5 1.8 -41 1.8 l-39.3 0 -7.7 -8z m72.5 -19.6 l0 -8.1 -3.7 0 c-2.1 0 -4.9 -1 -6.5 -2.3 -6 -4.7 -6.1 -5.7 -6.1 -40.9 l0 -32.3 3.3 -5.1 3.3 -5.2 -3 -4.4 -2.9 -4.4 -0.7 -31 c-0.3 -17 -0.3 -31.9 -0.1 -32.9 0.4 -1.7 1.8 -2 10.2 -2 11.4 0 15.5 1.5 20.8 7.8 4.2 4.9 7.2 14.1 7.2 22.3 l0 5.6 7.6 0 7.6 0 0 -32 0 -32 -3.4 0 c-1.8 0 -4.6 1 -6.1 2.2 -2.7 2.1 -4.4 2.2 -63.8 2.2 -59.6 0 -61 0 -62.9 -2.2 -1.3 -1.4 -3.4 -2.2 -6.2 -2.2 l-4.1 0 0 32 0 32 7.4 0 7.5 0 1.2 -8.9 c1.5 -10.2 5.4 -18.1 11.3 -22.9 3 -2.4 5.6 -3.4 11.8 -4.1 4.4 -0.5 9.4 -0.8 11.1 -0.3 l3.1 0.7 -0.4 31.6 c-0.3 33.6 -0.4 34 -6 39.9 l-2.6 2.8 3.9 5.6 3.8 5.7 0 32 c0 26.1 -0.3 32.7 -1.6 35.5 -2 4 -5.1 6.3 -10.3 7.1 l-3.8 0.7 -0.3 7.9 -0.3 7.8 37 0 36.9 0 0 -8.1z"/>
  <path d="M1799.2 402.2 c-1.4 -1.4 -4.9 -5.1 -7.6 -8.2 l-5 -5.7 0 -10.2 c0 -11.7 1.2 -14 8 -15.2 6.6 -1.3 6.6 -1.1 6.6 -34.7 l0 -30.6 -4 -5.2 c-4.9 -6.2 -5.2 -9.7 -1.4 -14.8 5.7 -7.8 6 -9.1 6 -33.1 l0 -22.3 -7.2 -7.8 c-4 -4.2 -7.6 -8.8 -8.1 -10.2 -1.4 -3.6 -1.2 -16.6 0.2 -20.7 0.7 -1.8 2.1 -3.9 3.1 -4.4 1.2 -0.7 14.8 -1.1 32.5 -1.1 l30.6 0 7.6 7.3 c4.1 4.1 8.2 8.7 9.1 10.3 1.8 3.6 9.2 23.1 19 50.8 4.2 11.6 8 21.6 8.5 22 1.1 1.1 3.7 -6 19.1 -51.5 7.5 -22.1 12.4 -34.8 13.9 -36.3 2.4 -2.4 2.9 -2.4 34.3 -2.6 l31.8 -0.1 6.4 6.3 c8.4 8.2 9.7 11.3 9.7 21.8 0 10.1 -1.4 12.8 -7.5 14.4 -8.1 2.2 -8.2 2.3 -8.6 32.8 l-0.3 27.1 4.4 6.7 c2.4 3.7 4.3 7.8 4.3 9.1 0 1.2 -2 4.6 -4.3 7.3 l-4.3 5 0 27.6 c0 23.8 0.2 27.7 1.7 28.5 0.9 0.4 4.3 4 7.6 7.7 l5.9 6.7 0 10.5 c0 16.8 3.6 15.4 -39.9 15.4 l-36.7 0 -7.4 -7.5 c-5.7 -5.9 -7.6 -8.5 -8.1 -11.6 -1.1 -6.9 -2.9 -5.4 -5.9 5.1 -3.9 13.7 -4.3 14 -16.4 14 l-9.9 0 -7.3 -7.8 c-8.2 -8.8 -8.5 -9.3 -20.2 -43.2 -9.2 -26.6 -10.4 -27.2 -10.8 -6.2 l-0.3 15.1 7.2 7.5 c3.8 4.1 7.3 8.7 7.7 10.2 0.3 1.4 0.4 6.8 0.3 12 -0.3 7.7 -0.8 9.5 -2.5 10.8 -1.7 1.2 -7.7 1.5 -30.6 1.5 -28.1 0 -28.5 0 -31.2 -2.4z m47.1 -24.6 c0 -8.1 0.3 -7.7 -6.7 -9.2 -1.6 -0.3 -4 -2.3 -5.4 -4.2 l-2.5 -3.5 -0.3 -50.1 c-0.3 -47.9 -0.2 -50.2 1.6 -50.2 2.1 0 4.7 7.1 34.4 94.4 l10.2 29.8 7.3 0 7.3 0 17.7 -52.1 c21.4 -63.1 26.7 -77.8 28.5 -78.4 1.1 -0.3 1.3 10.2 1.1 53.9 l-0.3 54.3 -2.8 2.8 c-1.6 1.5 -4.6 3.1 -6.5 3.6 l-3.7 0.8 -0.3 7.8 -0.3 7.8 34.3 0 34.2 0 0 -8.1 c0 -8 0 -8.1 -2.7 -8.1 -3.9 0 -8.6 -2.6 -11 -6.2 -1.8 -2.8 -2.1 -5.7 -2.4 -33.4 -0.2 -16.7 -0.1 -31.9 0.3 -33.7 0.3 -2 1.8 -5.3 3.4 -7.6 l2.8 -4 -3.4 -6.5 -3.4 -6.5 0 -28.5 c0 -17.6 0.4 -29.7 1.2 -31.6 1.7 -4.8 5.3 -7.9 10.4 -9.2 l4.7 -1.1 0 -8 0 -8 -29.7 0 -29.6 0 -17.1 50.8 c-20.8 61.6 -23.3 68.6 -24.4 68.6 -1.1 0 0.1 3.1 -19.1 -51.5 -9.2 -26.3 -18.3 -52.1 -20.3 -57.5 l-3.6 -9.8 -28.1 -0.3 c-21.7 -0.2 -28.2 0.1 -29 1.1 -1.3 2.2 -1 13.3 0.4 14.8 0.8 0.8 2.8 1.3 4.8 1.3 4.2 0 8.8 4.2 9.7 9.1 0.4 1.8 0.5 16.6 0.3 32.7 l-0.3 29.4 -3.5 4.8 c-4 5.4 -4.3 6.7 -1.7 8.8 1 0.9 2.6 3.5 3.7 5.9 1.8 3.9 2.1 7.7 2.1 35.3 0 27.3 -0.2 31.3 -2 34.7 -1.8 3.8 -5 6 -10.2 7.1 -2.9 0.5 -3 0.8 -3 8.1 l0 7.6 26.6 0 26.6 0 0 -7.5z m84.6 -17 c2.2 -2.2 3.1 -23.8 1 -23 -1.1 0.3 -4.6 9.4 -9.2 24 -0.5 1.8 -0.2 2 3 1.3 2 -0.4 4.3 -1.4 5.2 -2.3z"/>
 </g>
 <g fill="#154222">
  <path d="M283.1 530.8 c-46.8 -4.8 -92.7 -22.8 -129.6 -50.7 -10.8 -8.1 -31.2 -28 -39.8 -38.5 -32.8 -40.7 -50.8 -91.1 -50.8 -142.3 0 -95.7 57.9 -180 149.2 -217.2 22.3 -9.1 43.9 -14.6 62.9 -16.1 6.6 -0.4 17 -1.3 23.3 -2 12.7 -1.3 33.8 -0.1 50.4 2.7 91 15.4 163.8 76.5 190.9 159.9 8.9 27.7 11.9 49 11.1 79.5 -0.4 17.8 -1.1 24.4 -3.5 35.5 -12.4 58.9 -45.8 110.1 -94.5 144.9 -5.9 4.1 -11.5 8 -12.4 8.5 -0.9 0.4 -3.6 2 -6 3.4 -2.4 1.5 -8.5 4.7 -13.6 7.1 -12.8 6.2 -15.3 7.4 -18.4 8.2 -1.5 0.3 -5.5 2.2 -8.9 3.8 -3.5 1.7 -7.6 3.1 -9.3 3.1 -1.6 0 -3.5 0.4 -4 0.9 -0.7 0.5 -4 1.6 -7.6 2.4 -3.6 0.8 -8.9 2.1 -11.9 2.8 -12 3.3 -29.1 4.8 -51.4 4.6 -12.3 0 -24.1 -0.3 -26.1 -0.5z m91.7 -20.1 c19.5 -4.8 46.4 -17.2 66.9 -30.9 48.1 -32.1 81.6 -81.4 93.7 -137.9 2.3 -10.4 2.9 -16.7 3.4 -35.7 0.9 -32.8 -1.7 -51.1 -11.1 -78.2 -11.4 -33.2 -25.8 -56.6 -50.3 -81.9 -31.6 -32.3 -68.4 -53.4 -113.5 -64.7 -23.1 -5.7 -56 -8.1 -79.8 -5.6 -56.5 5.9 -105.8 29 -144.8 67.9 -21.2 21 -36.2 43 -47.1 68.3 -23 53.4 -23.9 111.8 -2.5 166 17.8 45.3 54.1 86 96.4 108 5.7 3 10.8 5.1 11.3 4.6 0.9 -0.8 3.3 -29.4 3.3 -37.7 l0 -3.8 -19.7 -0.2 c-17.7 -0.3 -19.9 -0.5 -20.2 -2.2 -0.3 -1.6 6.1 -12.9 19.1 -33.4 l4.6 -7.1 -6.1 -0.3 c-3.9 -0.2 -6.2 -0.9 -6.6 -1.8 -0.3 -0.9 4 -8.8 9.9 -17.9 5.7 -9 10.4 -16.5 10.4 -16.7 0 -0.2 -2.4 -0.8 -5.4 -1.2 -2.9 -0.4 -5.4 -1.1 -5.4 -1.5 0 -0.8 11.2 -18.7 25.3 -40.6 2.3 -3.4 4.8 -6.2 5.5 -6.2 1.4 0 27.6 40.8 29.4 45.9 0.8 1.8 0.8 2 -6.3 2.4 -1.6 0.1 -3.1 0.4 -3.5 0.7 -0.2 0.3 4.2 7.6 9.9 16.4 5.6 8.8 10.2 16.9 10.2 18.1 0 2.1 -0.7 2.3 -6 2.3 -3.3 0 -6 0.4 -6 0.9 0 0.4 3.6 6.7 7.9 13.9 12.6 20.6 15 25.1 14.2 26.9 -0.5 1.5 -3.3 1.7 -20.2 1.7 l-19.6 0 0.7 6.3 c0.4 3.4 1 11.2 1.4 17.1 0.3 6.1 1.1 11.7 1.6 12.5 1 1.7 6 0.3 29.2 -8.5 50.8 -19.1 72.7 -36.6 72.7 -58.1 0 -12.1 -8.1 -23.2 -29.5 -39.6 -18.5 -14.3 -22 -19.5 -22 -33.8 0 -16.4 5.5 -23.2 31.7 -38.6 21.7 -12.8 25.3 -16.8 25.3 -27.7 0 -9.5 -5.9 -17.8 -21 -29.7 l-4.1 -3.3 0.8 -25.8 c0.8 -21.8 1.1 -26 2.5 -26.6 1.1 -0.3 2.3 0.4 3.4 2 1 1.5 12.6 17.1 25.8 34.9 26.3 35.1 27.4 37.4 25.2 47.5 -2.2 9.7 -6.6 14.2 -24.4 25.3 -21.3 13.2 -27.4 22.5 -24.2 35.8 2.3 9.5 8.1 14.1 35.6 27.4 34.8 17 46 25.3 53 38.9 4.1 8.1 5.6 15.2 5.6 26 0 26.5 -11.5 45.5 -47.7 78.5 l-4.9 4.4 3.8 -0.7 c2.1 -0.3 7.7 -1.6 12.5 -2.8z"/>
  <path d="M467.4 298.2 c-23.5 -26.9 -47.5 -54.5 -53.4 -61.3 -5.9 -6.8 -11.3 -12.4 -11.9 -12.4 -0.8 0 -7.4 5.2 -14.9 11.4 -7.5 6.3 -14 11.4 -14.6 11.4 -1.2 -0.1 -2.9 -2.4 -40 -51.5 -13 -17.2 -24.3 -31.6 -24.9 -31.7 -0.7 -0.1 -17 21 -36.3 47 -19.3 26 -35.8 47.5 -36.6 47.8 -1.3 0.4 -16.7 -11.3 -27.9 -21 -2.2 -2 -4.4 -3.6 -4.9 -3.6 -0.5 0 -6.8 6.7 -14 14.9 -15.3 17.7 -47.8 54.6 -69.6 79.3 -8.6 9.7 -16.1 17.6 -16.5 17.6 -0.5 0 -1.2 -1.1 -1.5 -2.4 -3.6 -14.8 -4.1 -19.5 -4.6 -40.5 -0.5 -25.3 1.1 -40.1 6.7 -59.7 15.1 -52.1 50.3 -96.1 97.6 -121.8 34.6 -18.8 68.8 -27.3 109.1 -27.3 61.6 0 121.4 26.9 160.2 72.1 41 47.7 57.9 112.7 44.5 170.6 -1.2 5.4 -2.6 10 -3 10 -0.4 0 -20 -22 -43.5 -48.9z m25.4 -14.8 c-0.9 -9.1 -5.5 -30.9 -8.5 -39.9 -4 -12.3 -14.3 -33.1 -22.3 -45.1 -8.8 -13 -31.3 -35.9 -45.5 -45.8 -20.1 -14.2 -48.4 -26.1 -74.3 -31.5 -10.1 -2.1 -15.4 -2.4 -34.7 -2.4 -19.5 0 -24.5 0.3 -35.1 2.5 -32.1 6.5 -64.1 21.4 -86.6 40.1 -36.2 30.5 -60.5 74.7 -65 118.8 l-0.8 7.4 7.1 -7.4 c3.8 -4 9.3 -10.1 12.3 -13.3 2.8 -3.3 16.7 -18.8 30.6 -34.4 31.2 -35 27.7 -33.6 46.6 -18.2 6.9 5.6 13 10.3 13.3 10.3 0.3 0 16.9 -21.9 36.9 -48.7 36 -48.4 36.3 -48.8 40.2 -48.8 3.9 -0.1 4 0 36.3 43.1 l32.4 43.3 11.9 -9.7 c10.6 -8.6 12.4 -9.5 16.4 -9.5 4.2 0 4.9 0.4 11.9 8.4 18.9 21.3 76.6 85.6 77 85.9 0.1 0.1 -0.1 -2.2 -0.3 -5z"/>
  <path d="M761.9 334.6 c0 -6.5 0.1 -9.1 0.3 -5.6 0.2 3.5 0.2 8.8 0 11.9 -0.2 3.1 -0.3 0.3 -0.3 -6.3z"/>
  <path d="M952.7 336.8 c0 -4.1 0.2 -5.7 0.4 -3.5 0.2 2.2 0.2 5.6 0 7.6 -0.2 1.8 -0.4 0.1 -0.4 -4.1z"/>
  <path d="M1200.2 277.7 c0 -9.2 0.2 -13 0.3 -8.4 0.2 4.6 0.2 12.1 0 16.8 -0.1 4.6 -0.3 0.8 -0.3 -8.5z"/>
 </g>
 <g fill="#638c49">
  <path d="M1059 374.8 c0 -2.4 0.2 -3.3 0.4 -1.8 0.2 1.3 0.2 3.3 0 4.3 -0.3 1 -0.5 -0.1 -0.4 -2.5z"/>
  <path d="M1355.2 326.5 c0 -3.9 0.2 -5.4 0.4 -3.5 0.2 1.8 0.2 5.1 0 7.1 -0.2 1.8 -0.4 0.3 -0.4 -3.6z"/>
  <path d="M477.1 277.5 c-16.9 -18.8 -43.5 -48.4 -64.2 -71.7 -4.1 -4.6 -8 -8.4 -8.7 -8.4 -0.7 0 -7.3 4.9 -14.8 10.8 -7.4 6 -13.8 10.8 -14.2 10.8 -0.3 0 -15.7 -20 -34.1 -44.5 -18.3 -24.5 -33.6 -44.5 -34.1 -44.4 -0.3 0 -16.3 20.9 -35.4 46.6 -19.1 25.6 -36.1 48.3 -38 50.4 l-3.3 3.8 -15 -11.9 c-8.2 -6.6 -15.4 -12 -15.9 -12 -0.5 0 -12.6 13 -26.8 29 -25.4 28.5 -37.7 42.2 -49.5 55.1 -3.3 3.6 -6.3 6.2 -6.6 5.9 -1.1 -1 1.2 -25.5 3.3 -35.5 9 -44.9 38 -87.9 77 -114.2 19.3 -13 47 -24.3 72.1 -29.4 10.8 -2.2 15.5 -2.5 38.4 -2.5 22.7 0 27.6 0.3 38 2.4 25.9 5.3 54.2 17.2 74.3 31.5 14.1 9.9 36.7 32.8 45.5 45.8 8 12 18.3 32.9 22.3 45.1 4.1 12.6 8 33.3 8.9 46.5 0.3 6.3 0.4 11.5 0.1 11.5 -0.3 0 -9 -9.4 -19.5 -20.8z"/>
  <path d="M1128.5 212.6 c0 -5.1 0.2 -7.2 0.4 -4.6 0.2 2.5 0.2 6.6 0 9.2 -0.2 2.5 -0.4 0.4 -0.4 -4.7z"/>
  <path d="M1711 215.9 c0 -2.7 0.2 -3.8 0.4 -2.4 0.2 1.3 0.2 3.5 0 4.9 -0.2 1.3 -0.4 0.2 -0.4 -2.5z"/>
 </g>
 <g fill="#d72d27">
  <path d="M391.9 319.5 c-9.4 -4 -10.1 -17.9 -1.2 -23.3 9.3 -5.6 20.4 0.8 20.4 11.9 0 3.9 -0.7 5.2 -4.2 8.8 -4.7 4.7 -8.7 5.4 -15 2.6z"/>
 </g>
</svg>